<?xml version="1.0" encoding="utf-8"?>
<svg x="99.3611px" y="71.1638px" width="294.79px" height="294.79px" viewBox="99.3611 71.1638 294.79 294.79" xmlns="http://www.w3.org/2000/svg" xmlns:xlink="http://www.w3.org/1999/xlink">
  <path id="Path Copy" style="fill:#ffffff;fill-opacity:1;fill-rule:evenodd;opacity:1;stroke:#6e003b;stroke-linecap:round;stroke-linejoin:round;stroke-miterlimit:10;stroke-opacity:1;stroke-width:11;" d="M246.756,76.6638 C325.123,76.6638,388.651,140.192,388.651,218.559 C388.651,296.925,325.123,360.454,246.756,360.454 C168.39,360.454,104.861,296.925,104.861,218.559 C104.861,140.192,168.39,76.6638,246.756,76.6638 z"/>
  <path id="Path" style="fill:#6e003b;fill-opacity:0.533695;fill-rule:evenodd;opacity:1;stroke:#6e003b;stroke-linecap:round;stroke-linejoin:round;stroke-miterlimit:10;stroke-opacity:1;stroke-width:11;" d="M246.756,76.6638 C325.123,76.6638,388.651,140.192,388.651,218.559 C388.651,296.925,325.123,360.454,246.756,360.454 C168.39,360.454,104.861,296.925,104.861,218.559 C104.861,140.192,168.39,76.6638,246.756,76.6638 z"/>
  <path id="Path" style="fill:#ffffff;fill-opacity:1;fill-rule:nonzero;opacity:1;stroke:#6e003b;stroke-linecap:round;stroke-linejoin:round;stroke-miterlimit:10;stroke-opacity:1;stroke-width:6;" d="M246.756,110.648 C246.756,110.648,246.756,76.6638,246.756,76.6638"/>
  <path id="Path Copy" style="fill:#ffffff;fill-opacity:1;fill-rule:nonzero;opacity:1;stroke:#6e003b;stroke-linecap:round;stroke-linejoin:round;stroke-miterlimit:10;stroke-opacity:1;stroke-width:6;" d="M250,360.454 C250,360.454,250,326.469,250,326.469"/>
  <path id="Path Copy" style="fill:#ffffff;fill-opacity:1;fill-rule:nonzero;opacity:1;stroke:#6e003b;stroke-linecap:round;stroke-linejoin:round;stroke-miterlimit:10;stroke-opacity:1;stroke-width:6;" d="M138.845,218.559 C138.845,218.559,104.861,218.559,104.861,218.559"/>
  <path id="Path Copy 1" style="fill:#ffffff;fill-opacity:1;fill-rule:nonzero;opacity:1;stroke:#6e003b;stroke-linecap:round;stroke-linejoin:round;stroke-miterlimit:10;stroke-opacity:1;stroke-width:6;" d="M388.651,215.315 C388.651,215.315,354.667,215.315,354.667,215.315"/>
  <path id="Path Copy 1" style="fill:#ffffff;fill-opacity:1;fill-rule:nonzero;opacity:1;stroke:#6e003b;stroke-linecap:round;stroke-linejoin:round;stroke-miterlimit:10;stroke-opacity:1;stroke-width:6;" d="M321.914,296.01 C321.914,296.01,345.944,320.041,345.944,320.041"/>
  <path id="Path Copy 2" style="fill:#ffffff;fill-opacity:1;fill-rule:nonzero;opacity:1;stroke:#6e003b;stroke-linecap:round;stroke-linejoin:round;stroke-miterlimit:10;stroke-opacity:1;stroke-width:6;" d="M147.568,117.077 C147.568,117.077,171.599,141.108,171.599,141.108"/>
  <path id="Path Copy 2" style="fill:#ffffff;fill-opacity:1;fill-rule:nonzero;opacity:1;stroke:#6e003b;stroke-linecap:round;stroke-linejoin:round;stroke-miterlimit:10;stroke-opacity:1;stroke-width:6;" d="M171.599,296.01 C171.599,296.01,147.568,320.041,147.568,320.041"/>
  <path id="Path Copy 3" style="fill:#ffffff;fill-opacity:1;fill-rule:nonzero;opacity:1;stroke:#6e003b;stroke-linecap:round;stroke-linejoin:round;stroke-miterlimit:10;stroke-opacity:1;stroke-width:6;" d="M345.944,117.077 C345.944,117.077,321.914,141.108,321.914,141.108"/>
  <path id="Path" style="fill:#6f003b;fill-opacity:1;fill-rule:nonzero;opacity:1;stroke:#6e003b;stroke-linecap:round;stroke-linejoin:round;stroke-miterlimit:10;stroke-opacity:1;stroke-width:6;" d="M249.678,219.298 C249.678,219.298,200.479,268.497,200.479,268.497 C200.479,268.497,250.724,239.488,250.724,239.488 C250.724,239.488,249.678,219.298,249.678,219.298 z"/>
  <path id="Path Copy" style="fill:#6f003b;fill-opacity:1;fill-rule:nonzero;opacity:1;stroke:#6e003b;stroke-linecap:round;stroke-linejoin:round;stroke-miterlimit:10;stroke-opacity:1;stroke-width:6;" d="M249.678,219.298 C249.678,219.298,200.479,268.497,200.479,268.497 C200.479,268.497,228.844,217.609,228.844,217.609 C228.844,217.609,249.678,219.298,249.678,219.298 z"/>
  <path id="Path Copy" style="fill:#6f003b;fill-opacity:1;fill-rule:nonzero;opacity:1;stroke:#6e003b;stroke-linecap:round;stroke-linejoin:round;stroke-miterlimit:10;stroke-opacity:1;stroke-width:6;" d="M250,218.976 C250,218.976,299.199,268.176,299.199,268.176 C299.199,268.176,270.19,217.931,270.19,217.931 C270.19,217.931,250,218.976,250,218.976 z"/>
  <path id="Path Copy 1" style="fill:#6f003b;fill-opacity:1;fill-rule:nonzero;opacity:1;stroke:#6e003b;stroke-linecap:round;stroke-linejoin:round;stroke-miterlimit:10;stroke-opacity:1;stroke-width:6;" d="M250,218.976 C250,218.976,299.199,268.176,299.199,268.176 C299.199,268.176,248.31,239.81,248.31,239.81 C248.31,239.81,250,218.976,250,218.976 z"/>
  <path id="Path Copy 1" style="fill:#6f003b;fill-opacity:1;fill-rule:nonzero;opacity:1;stroke:#6e003b;stroke-linecap:round;stroke-linejoin:round;stroke-miterlimit:10;stroke-opacity:1;stroke-width:6;" d="M249.356,215.315 C249.356,215.315,298.555,166.116,298.555,166.116 C298.555,166.116,248.31,195.125,248.31,195.125 C248.31,195.125,249.356,215.315,249.356,215.315 z"/>
  <path id="Path Copy 2" style="fill:#6f003b;fill-opacity:1;fill-rule:nonzero;opacity:1;stroke:#6e003b;stroke-linecap:round;stroke-linejoin:round;stroke-miterlimit:10;stroke-opacity:1;stroke-width:6;" d="M249.356,215.315 C249.356,215.315,298.555,166.116,298.555,166.116 C298.555,166.116,270.19,217.005,270.19,217.005 C270.19,217.005,249.356,215.315,249.356,215.315 z"/>
  <path id="Path Copy 2" style="fill:#6f003b;fill-opacity:1;fill-rule:nonzero;opacity:1;stroke:#6e003b;stroke-linecap:round;stroke-linejoin:round;stroke-miterlimit:10;stroke-opacity:1;stroke-width:6;" d="M247.526,217.146 C247.526,217.146,198.326,167.947,198.326,167.947 C198.326,167.947,227.335,218.192,227.335,218.192 C227.335,218.192,247.526,217.146,247.526,217.146 z"/>
  <path id="Path Copy 3" style="fill:#6f003b;fill-opacity:1;fill-rule:nonzero;opacity:1;stroke:#6e003b;stroke-linecap:round;stroke-linejoin:round;stroke-miterlimit:10;stroke-opacity:1;stroke-width:6;" d="M247.526,217.146 C247.526,217.146,198.326,167.947,198.326,167.947 C198.326,167.947,249.215,196.312,249.215,196.312 C249.215,196.312,247.526,217.146,247.526,217.146 z"/>
  <path id="Path" style="fill:#b27697;fill-opacity:1;fill-rule:nonzero;opacity:1;stroke:#6e003b;stroke-linecap:round;stroke-linejoin:round;stroke-miterlimit:10;stroke-opacity:1;stroke-width:6;" d="M246.756,218.559 C246.756,218.559,159.583,218.559,159.583,218.559 C159.583,218.559,229.796,237.372,229.796,237.372 C229.796,237.372,246.756,218.559,246.756,218.559 z"/>
  <path id="Path Copy" style="fill:#6f003b;fill-opacity:1;fill-rule:nonzero;opacity:1;stroke:#6e003b;stroke-linecap:round;stroke-linejoin:round;stroke-miterlimit:10;stroke-opacity:1;stroke-width:6;" d="M246.756,218.559 C246.756,218.559,159.583,218.559,159.583,218.559 C159.583,218.559,229.796,198.605,229.796,198.605 C229.796,198.605,246.756,218.559,246.756,218.559 z"/>
  <path id="Path Copy" style="fill:#b27697;fill-opacity:1;fill-rule:nonzero;opacity:1;stroke:#6e003b;stroke-linecap:round;stroke-linejoin:round;stroke-miterlimit:10;stroke-opacity:1;stroke-width:6;" d="M247.326,218.559 C247.326,218.559,247.326,305.732,247.326,305.732 C247.326,305.732,266.14,235.519,266.14,235.519 C266.14,235.519,247.326,218.559,247.326,218.559 z"/>
  <path id="Path Copy 1" style="fill:#6f003b;fill-opacity:1;fill-rule:nonzero;opacity:1;stroke:#6e003b;stroke-linecap:round;stroke-linejoin:round;stroke-miterlimit:10;stroke-opacity:1;stroke-width:6;" d="M247.326,218.559 C247.326,218.559,247.326,305.732,247.326,305.732 C247.326,305.732,227.373,235.519,227.373,235.519 C227.373,235.519,247.326,218.559,247.326,218.559 z"/>
  <path id="Path Copy 1" style="fill:#b27697;fill-opacity:1;fill-rule:nonzero;opacity:1;stroke:#6e003b;stroke-linecap:round;stroke-linejoin:round;stroke-miterlimit:10;stroke-opacity:1;stroke-width:6;" d="M250,214.745 C250,214.745,337.173,214.745,337.173,214.745 C337.173,214.745,266.96,195.931,266.96,195.931 C266.96,195.931,250,214.745,250,214.745 z"/>
  <path id="Path Copy 2" style="fill:#6f003b;fill-opacity:1;fill-rule:nonzero;opacity:1;stroke:#6e003b;stroke-linecap:round;stroke-linejoin:round;stroke-miterlimit:10;stroke-opacity:1;stroke-width:6;" d="M250,214.745 C250,214.745,337.173,214.745,337.173,214.745 C337.173,214.745,266.96,234.699,266.96,234.699 C266.96,234.699,250,214.745,250,214.745 z"/>
  <path id="Path Copy 2" style="fill:#b27697;fill-opacity:1;fill-rule:nonzero;opacity:1;stroke:#6e003b;stroke-linecap:round;stroke-linejoin:round;stroke-miterlimit:10;stroke-opacity:1;stroke-width:6;" d="M246.756,214.745 C246.756,214.745,246.756,127.572,246.756,127.572 C246.756,127.572,227.943,197.784,227.943,197.784 C227.943,197.784,246.756,214.745,246.756,214.745 z"/>
  <path id="Path Copy 3" style="fill:#6f003b;fill-opacity:1;fill-rule:nonzero;opacity:1;stroke:#6e003b;stroke-linecap:round;stroke-linejoin:round;stroke-miterlimit:10;stroke-opacity:1;stroke-width:6;" d="M246.756,214.745 C246.756,214.745,246.756,127.572,246.756,127.572 C246.756,127.572,266.71,197.785,266.71,197.785 C266.71,197.785,246.756,214.745,246.756,214.745 z"/>
  <path id="Path" style="fill:#ff0000;fill-opacity:1;fill-rule:nonzero;opacity:1;stroke:#fe0000;stroke-linecap:round;stroke-linejoin:round;stroke-miterlimit:10;stroke-opacity:1;stroke-width:3;" d="M325.973,299.075 C325.973,299.075,204.287,130.414,204.287,130.414 C204.287,130.414,159.583,172.537,159.583,172.537 C159.583,172.537,325.973,299.075,325.973,299.075 z"/>
  <path id="Path" style="fill:#6f003b;fill-opacity:1;fill-rule:evenodd;opacity:1;stroke:none;" d="M247.326,212.62 C250.082,212.62,252.315,214.854,252.315,217.609 C252.315,220.364,250.082,222.597,247.326,222.597 C244.571,222.597,242.338,220.364,242.338,217.609 C242.338,214.854,244.571,212.62,247.326,212.62 z"/>
</svg>
